<svg width="20" height="20" viewBox="0 0 20 20" fill="none" xmlns="http://www.w3.org/2000/svg">
<path fill-rule="evenodd" clip-rule="evenodd" d="M14.2806 7.21937C14.4215 7.36005 14.5006 7.55094 14.5006 7.75C14.5006 7.94906 14.4215 8.13995 14.2806 8.28063L9.03063 13.5306C8.88995 13.6715 8.69906 13.7506 8.5 13.7506C8.30094 13.7506 8.11005 13.6715 7.96937 13.5306L5.71938 11.2806C5.42632 10.9876 5.42632 10.5124 5.71938 10.2194C6.01243 9.92632 6.48757 9.92632 6.78063 10.2194L8.5 11.9397L13.2194 7.21937C13.3601 7.07854 13.5509 6.99941 13.75 6.99941C13.9491 6.99941 14.1399 7.07854 14.2806 7.21937ZM19.75 10C19.75 15.3848 15.3848 19.75 10 19.75C4.61522 19.75 0.25 15.3848 0.25 10C0.25 4.61522 4.61522 0.25 10 0.25C15.3824 0.255684 19.7443 4.61758 19.75 10ZM18.25 10C18.25 5.44365 14.5563 1.75 10 1.75C5.44365 1.75 1.75 5.44365 1.75 10C1.75 14.5563 5.44365 18.25 10 18.25C14.5542 18.2448 18.2448 14.5542 18.25 10Z" fill="#121417"/>
</svg>
