<svg width="24" height="24" viewBox="0 0 24 24" fill="none" xmlns="http://www.w3.org/2000/svg">
<path d="M11.2 12C11.2 11.0536 10.8875 10.2455 10.2625 9.5759C9.6375 8.90626 8.88333 8.57144 8 8.57144C7.11667 8.57144 6.3625 8.90626 5.7375 9.5759C5.1125 10.2455 4.8 11.0536 4.8 12C4.8 12.9464 5.1125 13.7545 5.7375 14.4241C6.3625 15.0938 7.11667 15.4286 8 15.4286C8.88333 15.4286 9.6375 15.0938 10.2625 14.4241C10.8875 13.7545 11.2 12.9464 11.2 12ZM20.8 18.8572C20.8 18.3929 20.6417 17.9911 20.325 17.6518C20.0083 17.3125 19.6333 17.1429 19.2 17.1429C18.7667 17.1429 18.3917 17.3125 18.075 17.6518C17.7583 17.9911 17.6 18.3929 17.6 18.8572C17.6 19.3304 17.7563 19.7344 18.0688 20.0692C18.3813 20.404 18.7583 20.5714 19.2 20.5714C19.6417 20.5714 20.0188 20.404 20.3313 20.0692C20.6438 19.7344 20.8 19.3304 20.8 18.8572ZM20.8 5.14287C20.8 4.67858 20.6417 4.27679 20.325 3.93751C20.0083 3.59822 19.6333 3.42858 19.2 3.42858C18.7667 3.42858 18.3917 3.59822 18.075 3.93751C17.7583 4.27679 17.6 4.67858 17.6 5.14287C17.6 5.61608 17.7563 6.0201 18.0688 6.35492C18.3813 6.68974 18.7583 6.85715 19.2 6.85715C19.6417 6.85715 20.0188 6.68974 20.3313 6.35492C20.6438 6.0201 20.8 5.61608 20.8 5.14287ZM16 10.7813V13.2589C16 13.3482 15.9708 13.4353 15.9125 13.5201C15.8542 13.6049 15.7875 13.6518 15.7125 13.6607L13.775 13.9822C13.6833 14.2947 13.55 14.6339 13.375 15C13.6583 15.4286 14.0333 15.942 14.5 16.5402C14.5583 16.6384 14.5875 16.7277 14.5875 16.808C14.5875 16.9152 14.5583 17 14.5 17.0625C14.3083 17.3304 13.9646 17.7299 13.4688 18.2612C12.9729 18.7924 12.6458 19.058 12.4875 19.058C12.3958 19.058 12.3083 19.0268 12.225 18.9643L10.7875 17.7589C10.4792 17.9286 10.1583 18.067 9.825 18.1741C9.73333 19.1384 9.6375 19.8304 9.5375 20.25C9.47917 20.4643 9.35417 20.5714 9.1625 20.5714H6.8375C6.74583 20.5714 6.6625 20.538 6.5875 20.471C6.5125 20.404 6.47083 20.3259 6.4625 20.2366L6.175 18.1875C5.89167 18.0982 5.57917 17.9598 5.2375 17.7723L3.7625 18.9643C3.70417 19.0268 3.62083 19.058 3.5125 19.058C3.42083 19.058 3.33333 19.0223 3.25 18.9509C2.05 17.7634 1.45 17.0491 1.45 16.808C1.45 16.7277 1.47917 16.6429 1.5375 16.5536C1.62083 16.4286 1.79167 16.192 2.05 15.8438C2.30833 15.4955 2.50417 15.2232 2.6375 15.0268C2.44583 14.6339 2.3 14.2679 2.2 13.9286L0.3 13.6072C0.216667 13.5982 0.145833 13.5558 0.0875 13.4799C0.0291667 13.404 0 13.317 0 13.2188V10.7411C0 10.6518 0.0291667 10.5647 0.0875 10.4799C0.145833 10.3951 0.2125 10.3482 0.2875 10.3393L2.225 10.0179C2.31667 9.70537 2.45 9.36608 2.625 9.00001C2.34167 8.57144 1.96667 8.05804 1.5 7.45983C1.44167 7.36162 1.4125 7.27233 1.4125 7.19197C1.4125 7.08483 1.44167 6.99554 1.5 6.92412C1.68333 6.65626 2.025 6.25894 2.525 5.73215C3.025 5.20537 3.35417 4.94197 3.5125 4.94197C3.60417 4.94197 3.69167 4.97322 3.775 5.03572L5.2125 6.24108C5.49583 6.08037 5.81667 5.93751 6.175 5.81251C6.26667 4.84822 6.3625 4.16072 6.4625 3.75001C6.52083 3.53572 6.64583 3.42858 6.8375 3.42858H9.1625C9.25417 3.42858 9.3375 3.46206 9.4125 3.52903C9.4875 3.59599 9.52917 3.67412 9.5375 3.7634L9.825 5.81251C10.1083 5.90179 10.4208 6.04019 10.7625 6.22769L12.2375 5.03572C12.3042 4.97322 12.3875 4.94197 12.4875 4.94197C12.5792 4.94197 12.6667 4.97769 12.75 5.04912C13.95 6.23662 14.55 6.9509 14.55 7.19197C14.55 7.2634 14.5208 7.34822 14.4625 7.44644C14.3625 7.58929 14.1875 7.83037 13.9375 8.16965C13.6875 8.50894 13.5 8.77679 13.375 8.97322C13.5667 9.40179 13.7083 9.76787 13.8 10.0714L15.7 10.3795C15.7833 10.3973 15.8542 10.4442 15.9125 10.5201C15.9708 10.596 16 10.683 16 10.7813ZM24 17.9197V19.7947C24 19.9375 23.3792 20.0759 22.1375 20.2098C22.0375 20.4509 21.9125 20.683 21.7625 20.9063C22.1875 21.9152 22.4 22.5313 22.4 22.7545C22.4 22.7902 22.3833 22.8214 22.35 22.8482C21.3333 23.4822 20.8167 23.7991 20.8 23.7991C20.7333 23.7991 20.5417 23.5893 20.225 23.1697C19.9083 22.75 19.6917 22.4464 19.575 22.2589C19.4083 22.2768 19.2833 22.2857 19.2 22.2857C19.1167 22.2857 18.9917 22.2768 18.825 22.2589C18.7083 22.4464 18.4917 22.75 18.175 23.1697C17.8583 23.5893 17.6667 23.7991 17.6 23.7991C17.5833 23.7991 17.0667 23.4822 16.05 22.8482C16.0167 22.8214 16 22.7902 16 22.7545C16 22.5313 16.2125 21.9152 16.6375 20.9063C16.4875 20.683 16.3625 20.4509 16.2625 20.2098C15.0208 20.0759 14.4 19.9375 14.4 19.7947V17.9197C14.4 17.7768 15.0208 17.6384 16.2625 17.5045C16.3708 17.2455 16.4958 17.0134 16.6375 16.808C16.2125 15.7991 16 15.183 16 14.9598C16 14.9241 16.0167 14.8929 16.05 14.8661C16.0833 14.8482 16.2292 14.7589 16.4875 14.5982C16.7458 14.4375 16.9917 14.2857 17.225 14.1429C17.4583 14 17.5833 13.9286 17.6 13.9286C17.6667 13.9286 17.8583 14.1362 18.175 14.5513C18.4917 14.9665 18.7083 15.2679 18.825 15.4554C18.9917 15.4375 19.1167 15.4286 19.2 15.4286C19.2833 15.4286 19.4083 15.4375 19.575 15.4554C20 14.8214 20.3833 14.3214 20.725 13.9554L20.8 13.9286C20.8333 13.9286 21.35 14.2411 22.35 14.8661C22.3833 14.8929 22.4 14.9241 22.4 14.9598C22.4 15.183 22.1875 15.7991 21.7625 16.808C21.9042 17.0134 22.0292 17.2455 22.1375 17.5045C23.3792 17.6384 24 17.7768 24 17.9197ZM24 4.20537V6.08037C24 6.22322 23.3792 6.36162 22.1375 6.49554C22.0375 6.73662 21.9125 6.96876 21.7625 7.19197C22.1875 8.2009 22.4 8.81697 22.4 9.04019C22.4 9.0759 22.3833 9.10715 22.35 9.13394C21.3333 9.76787 20.8167 10.0848 20.8 10.0848C20.7333 10.0848 20.5417 9.87501 20.225 9.45537C19.9083 9.03572 19.6917 8.73215 19.575 8.54465C19.4083 8.56251 19.2833 8.57144 19.2 8.57144C19.1167 8.57144 18.9917 8.56251 18.825 8.54465C18.7083 8.73215 18.4917 9.03572 18.175 9.45537C17.8583 9.87501 17.6667 10.0848 17.6 10.0848C17.5833 10.0848 17.0667 9.76787 16.05 9.13394C16.0167 9.10715 16 9.0759 16 9.04019C16 8.81697 16.2125 8.2009 16.6375 7.19197C16.4875 6.96876 16.3625 6.73662 16.2625 6.49554C15.0208 6.36162 14.4 6.22322 14.4 6.08037V4.20537C14.4 4.06251 15.0208 3.92412 16.2625 3.79019C16.3708 3.53126 16.4958 3.29912 16.6375 3.09376C16.2125 2.08483 16 1.46876 16 1.24554C16 1.20983 16.0167 1.17858 16.05 1.15179C16.0833 1.13394 16.2292 1.04465 16.4875 0.883937C16.7458 0.723223 16.9917 0.571437 17.225 0.42858C17.4583 0.285723 17.5833 0.214294 17.6 0.214294C17.6667 0.214294 17.8583 0.421884 18.175 0.837062C18.4917 1.25224 18.7083 1.55358 18.825 1.74108C18.9917 1.72322 19.1167 1.71429 19.2 1.71429C19.2833 1.71429 19.4083 1.72322 19.575 1.74108C20 1.10715 20.3833 0.607152 20.725 0.24108L20.8 0.214294C20.8333 0.214294 21.35 0.526794 22.35 1.15179C22.3833 1.17858 22.4 1.20983 22.4 1.24554C22.4 1.46876 22.1875 2.08483 21.7625 3.09376C21.9042 3.29912 22.0292 3.53126 22.1375 3.79019C23.3792 3.92412 24 4.06251 24 4.20537Z" fill="black"/>
</svg>
