<svg width="20" height="20" viewBox="0 0 20 20" fill="none" xmlns="http://www.w3.org/2000/svg">
<path d="M15.9099 3H3.90994L5.20994 1.71C5.39824 1.5217 5.50403 1.2663 5.50403 1C5.50403 0.733701 5.39824 0.478306 5.20994 0.290002C5.02164 0.101699 4.76624 -0.00408936 4.49994 -0.00408936C4.23364 -0.00408936 3.97824 0.101699 3.78994 0.290002L0.789939 3.29C0.696211 3.38297 0.621816 3.49357 0.571048 3.61543C0.520279 3.73728 0.494141 3.86799 0.494141 4C0.494141 4.13201 0.520279 4.26272 0.571048 4.38458C0.621816 4.50644 0.696211 4.61704 0.789939 4.71L3.78994 7.71C3.8829 7.80373 3.9935 7.87812 4.11536 7.92889C4.23722 7.97966 4.36793 8.0058 4.49994 8.0058C4.63195 8.0058 4.76266 7.97966 4.88452 7.92889C5.00637 7.87812 5.11698 7.80373 5.20994 7.71C5.30367 7.61704 5.37806 7.50644 5.42883 7.38458C5.4796 7.26272 5.50574 7.13201 5.50574 7C5.50574 6.86799 5.4796 6.73728 5.42883 6.61543C5.37806 6.49357 5.30367 6.38297 5.20994 6.29L3.90994 5H15.9099C16.1148 4.99602 16.3185 5.03245 16.5093 5.10719C16.7 5.18194 16.8742 5.29354 17.0219 5.43562C17.1695 5.5777 17.2878 5.74748 17.3698 5.93525C17.4518 6.12303 17.496 6.32513 17.4999 6.53V9C17.4999 9.26522 17.6053 9.51957 17.7928 9.70711C17.9804 9.89464 18.2347 10 18.4999 10C18.7652 10 19.0195 9.89464 19.207 9.70711C19.3946 9.51957 19.4999 9.26522 19.4999 9V6.53C19.496 6.06249 19.4 5.60033 19.2175 5.16991C19.035 4.73949 18.7694 4.34925 18.4361 4.02145C18.1027 3.69366 17.708 3.43474 17.2746 3.25948C16.8412 3.08422 16.3774 2.99605 15.9099 3ZM16.2099 12.29C16.0216 12.1017 15.7662 11.9959 15.4999 11.9959C15.2336 11.9959 14.9782 12.1017 14.7899 12.29C14.6016 12.4783 14.4958 12.7337 14.4958 13C14.4958 13.2663 14.6016 13.5217 14.7899 13.71L16.0899 15H4.08994C3.88507 15.004 3.68142 14.9676 3.49063 14.8928C3.29983 14.8181 3.12564 14.7065 2.97798 14.5644C2.83033 14.4223 2.71212 14.2525 2.63009 14.0648C2.54807 13.877 2.50384 13.6749 2.49994 13.47V11C2.49994 10.7348 2.39458 10.4804 2.20705 10.2929C2.01951 10.1054 1.76516 10 1.49994 10C1.23472 10 0.980368 10.1054 0.792832 10.2929C0.605296 10.4804 0.499939 10.7348 0.499939 11V13.47C0.503862 13.9375 0.599834 14.3997 0.782375 14.8301C0.964915 15.2605 1.23045 15.6508 1.56382 15.9786C1.89718 16.3063 2.29185 16.5653 2.72528 16.7405C3.15872 16.9158 3.62243 17.004 4.08994 17H16.0899L14.7899 18.29C14.6962 18.383 14.6218 18.4936 14.571 18.6154C14.5203 18.7373 14.4941 18.868 14.4941 19C14.4941 19.132 14.5203 19.2627 14.571 19.3846C14.6218 19.5064 14.6962 19.617 14.7899 19.71C14.8829 19.8037 14.9935 19.8781 15.1154 19.9289C15.2372 19.9797 15.3679 20.0058 15.4999 20.0058C15.632 20.0058 15.7627 19.9797 15.8845 19.9289C16.0064 19.8781 16.117 19.8037 16.2099 19.71L19.2099 16.71C19.3037 16.617 19.3781 16.5064 19.4288 16.3846C19.4796 16.2627 19.5057 16.132 19.5057 16C19.5057 15.868 19.4796 15.7373 19.4288 15.6154C19.3781 15.4936 19.3037 15.383 19.2099 15.29L16.2099 12.29Z" fill="black"/>
</svg>
